HIERARCHY
ROOT Hips
{
  OFFSET 56.4868 96.9218 10.0107
  CHANNELS 6 Xposition Yposition Zposition Zrotation Xrotation Yrotation
  JOINT spine
  {
    OFFSET 0 7.96568 0.458067
    CHANNELS 3 Zrotation Xrotation Yrotation
    JOINT spine1
    {
      OFFSET 0 10.2431 0
      CHANNELS 3 Zrotation Xrotation Yrotation
      JOINT spine2
      {
        OFFSET 0 9.81475 0
        CHANNELS 3 Zrotation Xrotation Yrotation
        JOINT Neck
        {
          OFFSET 0 25.1986 1.20138
          CHANNELS 3 Zrotation Xrotation Yrotation
          JOINT Head
          {
            OFFSET 0 7.61315 0
            CHANNELS 3 Zrotation Xrotation Yrotation
            End Site
            {
              OFFSET 0 18.4281 -6.07733
            }
          }
        }
        JOINT RightShoulder
        {
          OFFSET -4.1327 10.5992 -0.575451
          CHANNELS 3 Zrotation Xrotation Yrotation
          JOINT RightArm
          {
            OFFSET 0 13.9018 0
            CHANNELS 3 Zrotation Xrotation Yrotation
            JOINT RightArmRoll
            {
              OFFSET 0 7.01788 0
              CHANNELS 3 Zrotation Xrotation Yrotation
              JOINT RightForeArm
              {
                OFFSET 0 20.4406 0
                CHANNELS 3 Zrotation Xrotation Yrotation
                JOINT RightForeArmRoll
                {
                  OFFSET 0 7.87515 0
                  CHANNELS 3 Zrotation Xrotation Yrotation
                  JOINT RightHand
                  {
                    OFFSET 0 15.8037 0
                    CHANNELS 3 Zrotation Xrotation Yrotation
                    End Site
                    {
                      OFFSET 0 0 0
                    }
                  }
                }
              }
            }
          }
        }
        JOINT LeftShoulder
        {
          OFFSET 4.1327 10.5992 -0.575451
          CHANNELS 3 Zrotation Xrotation Yrotation
          JOINT LeftArm
          {
            OFFSET 0 13.9018 0
            CHANNELS 3 Zrotation Xrotation Yrotation
            JOINT LeftArmRoll
            {
              OFFSET 0 7.01788 0
              CHANNELS 3 Zrotation Xrotation Yrotation
              JOINT LeftForeArm
              {
                OFFSET 0 20.4406 0
                CHANNELS 3 Zrotation Xrotation Yrotation
                JOINT LeftForeArmRoll
                {
                  OFFSET 0 7.87516 0
                  CHANNELS 3 Zrotation Xrotation Yrotation
                  JOINT LeftHand
                  {
                    OFFSET 0 15.8037 0
                    CHANNELS 3 Zrotation Xrotation Yrotation
                    End Site
                    {
                      OFFSET 0 0 0
                    }
                  }
                }
              }
            }
          }
        }
      }
    }
  }
  JOINT RightUpLeg
  {
    OFFSET -7.06048 -1.2947 -1.0861
    CHANNELS 3 Zrotation Xrotation Yrotation
    JOINT RightUpLegRoll
    {
      OFFSET 0 18.5308 0
      CHANNELS 3 Zrotation Xrotation Yrotation
      JOINT RightLeg
      {
        OFFSET 0 -22.9476 0
        CHANNELS 3 Zrotation Xrotation Yrotation
        JOINT RightLegRoll
        {
          OFFSET 0 23.0226 0
          CHANNELS 3 Zrotation Xrotation Yrotation
          JOINT RightFoot
          {
            OFFSET 0 19.1625 0
            CHANNELS 3 Zrotation Xrotation Yrotation
            JOINT RightToeBase
            {
              OFFSET 0 16.0188 0
              CHANNELS 3 Zrotation Xrotation Yrotation
              End Site
              {
                OFFSET 0.00678979 7.75782 -0.894206
              }
            }
          }
        }
      }
    }
  }
  JOINT LeftUpLeg
  {
    OFFSET 7.06048 -1.2947 -1.0861
    CHANNELS 3 Zrotation Xrotation Yrotation
    JOINT LeftUpLegRoll
    {
      OFFSET 0 18.5309 0
      CHANNELS 3 Zrotation Xrotation Yrotation
      JOINT LeftLeg
      {
        OFFSET 0 22.9475 0
        CHANNELS 3 Zrotation Xrotation Yrotation
        JOINT LeftLegRoll
        {
          OFFSET 0 23.2355 0
          CHANNELS 3 Zrotation Xrotation Yrotation
          JOINT LeftFoot
          {
            OFFSET 0 18.9496 0
            CHANNELS 3 Zrotation Xrotation Yrotation
            JOINT LeftToeBase
            {
              OFFSET 0 16.0188 0
              CHANNELS 3 Zrotation Xrotation Yrotation
              End Site
              {
                OFFSET -0.0304289 7.75781 -0.894207
              }
            }
          }
        }
      }
    }
  }
}
MOTION
Frames: 10
Frame Time: 0.00208333
55.6208 97.0205 11.131 0.527402 -5.72639 4.48848 0.106508 -0.895466 -0.159939 0.202164 2.21158 -0.335054 0.206388 3.85664 -0.33869 -20.9884 19.1617 1.89531 15.5534 4.04855 -3.84354 16.9115 -10.1355 -6.1778 13.6761 24.6269 74.4739 -4.77083e-015 3.18055e-015 -1.59028e-015 170.784 86.3173 -165.752 -5.43533e-006 3.45746e-006 -3.00971 8.02994 -4.95143 0.697662 -31.3136 -5.77597 1.74807 -13.0553 38.7783 -84.8176 3.94799e-005 -1.57703e-006 2.23847e-006 28.6356 82.5594 -31.6393 3.47719e-007 -2.9742e-006 3.00001 -8.02927 -4.95144 -0.697654 174.134 -5.54508 5.06487 180 7.01508e-015 178.765 177.919 4.75876 179.739 1.36169e-006 -1.87513e-007 0.0621187 -18.9305 68.1899 19.6887 8.1365 25.2327 -3.48773 -174.247 -8.25136 -2.98671 4.5067e-006 -1.99009e-005 -1.2952 -2.87018 -4.37654 -0.0492689 -1.76249e-007 -2.57341e-006 -0.0487561 18.5466 67.6871 -19.289 -8.13649 25.2327 3.48774 
55.6156 97.0196 11.0868 0.5282 -5.7109 4.47993 0.103078 -0.893653 -0.155367 0.195162 2.21522 -0.325818 0.199268 3.86029 -0.32933 -20.7427 19.1307 1.85735 15.353 4.01553 -3.80422 16.8788 -10.1334 -6.17477 13.6588 24.6679 74.5136 -3.18055e-015 -6.36111e-015 3.18055e-015 171.016 86.0707 -165.943 -5.43533e-006 3.45746e-006 -3.00971 8.02994 -4.95143 0.697662 -31.2287 -5.72846 1.69266 -13.1843 38.8159 -84.7634 3.94799e-005 -1.57703e-006 2.23847e-006 29.0252 82.7036 -32.0685 3.47719e-007 -2.9742e-006 3.00001 -8.02927 -4.95144 -0.697654 174.133 -5.51424 5.05743 180 7.01508e-015 178.766 177.926 4.76455 179.739 1.36169e-006 -1.87513e-007 0.062242 -18.9311 68.1913 19.6895 8.1365 25.2327 -3.48773 -174.25 -8.2195 -2.9872 4.5067e-006 -1.99009e-005 -1.29476 -2.87576 -4.38954 -0.0501138 -1.76249e-007 -2.57341e-006 -0.0487429 18.5429 67.6828 -19.2855 -8.13649 25.2327 3.48774 
55.6194 97.0199 11.0793 0.528973 -5.69552 4.47049 0.0997193 -0.891713 -0.151169 0.188386 2.21912 -0.317251 0.192382 3.86419 -0.320643 -20.5035 19.0922 1.82008 15.1599 3.9898 -3.76584 16.8461 -10.132 -6.17278 13.6539 24.7116 74.5605 -7.95139e-015 7.15625e-015 7.95139e-015 171.197 85.842 -166.082 -5.43534e-006 3.45746e-006 -3.0097 8.02994 -4.95143 0.697662 -31.1547 -5.6837 1.64099 -13.3097 38.8505 -84.7202 3.94799e-005 -1.57703e-006 2.23847e-006 29.4237 82.8424 -32.5061 3.47719e-007 -2.9742e-006 3.00001 -8.02927 -4.95144 -0.697654 174.131 -5.48337 5.05028 180 7.01508e-015 178.766 177.933 4.77084 179.738 1.36169e-006 -1.87513e-007 0.0623619 -18.932 68.1932 19.6907 8.1365 25.2327 -3.48773 -174.253 -8.18872 -2.98734 4.5067e-006 -1.99009e-005 -1.29431 -2.88098 -4.4017 -0.0508912 -1.76249e-007 -2.57341e-006 -0.0487295 18.5394 67.6787 -19.2823 -8.13649 25.2327 3.48774 
55.6293 97.0239 11.0897 0.529762 -5.68045 4.46005 0.0964762 -0.88958 -0.147426 0.181932 2.2234 -0.309498 0.185829 3.86847 -0.312777 -20.2723 19.0446 1.78367 14.9754 3.97266 -3.72854 16.8129 -10.1316 -6.17201 13.6608 24.7588 74.6168 -3.18055e-015 1.66979e-014 -1.59028e-015 171.335 85.6315 -166.176 -5.43534e-006 3.45746e-006 -3.0097 8.02994 -4.95143 0.697662 -31.0928 -5.64191 1.59346 -13.4299 38.8821 -84.6909 3.94799e-005 -1.57703e-006 2.23847e-006 29.8376 82.977 -32.959 3.47719e-007 -2.9742e-006 3.00001 -8.02927 -4.95144 -0.697654 174.129 -5.45271 5.04356 180 7.01508e-015 178.767 177.94 4.77772 179.738 1.36169e-006 -1.87513e-007 0.0624779 -18.9335 68.1957 19.6925 8.1365 25.2327 -3.48773 -174.256 -8.15943 -2.98703 4.5067e-006 -1.99009e-005 -1.29384 -2.88575 -4.41284 -0.0515838 -1.76249e-007 -2.57341e-006 -0.0487161 18.5362 67.675 -19.2793 -8.13649 25.2327 3.48774 
55.6282 97.0251 11.065 0.530609 -5.66593 4.44855 0.0933915 -0.887188 -0.144219 0.175898 2.2282 -0.302707 0.179708 3.87327 -0.305879 -20.0507 18.9865 1.74828 14.8008 3.96537 -3.69247 16.7789 -10.1321 -6.17264 13.6791 24.8104 74.6847 -4.77083e-015 3.18055e-015 4.77083e-015 171.435 85.4397 -166.23 -5.43533e-006 3.45746e-006 -3.00969 8.02994 -4.95143 0.697662 -31.0445 -5.60333 1.55046 -13.5434 38.9107 -84.6784 3.94799e-005 -1.57703e-006 2.23847e-006 30.2747 83.109 -33.4355 3.47719e-007 -2.9742e-006 3.00001 -8.02927 -4.95144 -0.697654 174.127 -5.42247 5.03738 180 7.01509e-015 178.767 177.946 4.78529 179.737 1.36169e-006 -1.87513e-007 0.0625898 -18.9354 68.1987 19.6948 8.1365 25.2327 -3.48773 -174.259 -8.13206 -2.98618 4.5067e-006 -1.99009e-005 -1.29335 -2.88998 -4.42278 -0.0521745 -1.76249e-007 -2.57341e-006 -0.0487025 18.5333 67.6716 -19.2767 -8.13649 25.2327 3.48774 
55.6291 97.0232 11.0238 0.531553 -5.65217 4.4359 0.0905084 -0.884473 -0.141627 0.170383 2.23364 -0.297021 0.174119 3.87872 -0.300097 -19.8402 18.9162 1.71405 14.6375 3.96924 -3.65778 16.7437 -10.1339 -6.17485 13.7082 24.867 74.7665 6.36111e-015 -1.59028e-014 1.59028e-015 171.502 85.2671 -166.248 -5.43533e-006 3.45746e-006 -3.00968 8.02994 -4.95143 0.697662 -31.0112 -5.56818 1.5124 -13.6485 38.9362 -84.6856 3.94799e-005 -1.57703e-006 2.23847e-006 30.7433 83.2398 -33.9446 3.47719e-007 -2.9742e-006 3.00001 -8.02927 -4.95144 -0.697654 174.124 -5.39289 5.03186 180 7.01509e-015 178.768 177.952 4.79359 179.737 1.36169e-006 -1.87513e-007 0.0626973 -18.938 68.2024 19.6977 8.1365 25.2327 -3.48773 -174.263 -8.10702 -2.98469 4.5067e-006 -1.99009e-005 -1.29284 -2.89356 -4.43134 -0.052646 -1.76249e-007 -2.57341e-006 -0.0486888 18.5308 67.6687 -19.2744 -8.13649 25.2327 3.48774 
55.629 97.0244 11.0168 0.532816 -5.63926 4.42226 0.0877086 -0.881395 -0.139558 0.165192 2.23981 -0.292212 0.168866 3.88488 -0.295198 -19.6405 18.8367 1.68077 14.4865 3.98102 -3.62464 16.705 -10.137 -6.17885 13.752 24.9278 74.8597 -1.27222e-014 8.74653e-015 1.11319e-014 171.53 85.1156 -166.226 -5.43534e-006 3.45746e-006 -3.00968 8.02994 -4.95143 0.697662 -30.9937 -5.53553 1.47828 -13.7435 38.9569 -84.7102 3.94799e-005 -1.57703e-006 2.23847e-006 31.2319 83.3668 -34.4732 3.47719e-007 -2.9742e-006 3.00001 -8.02927 -4.95144 -0.697654 174.121 -5.3637 5.02705 180 7.01509e-015 178.768 177.957 4.80345 179.737 1.36169e-006 -1.87513e-007 0.0628195 -18.9415 68.2071 19.7017 8.1365 25.2327 -3.48773 -174.268 -8.08427 -2.98243 4.5067e-006 -1.99009e-005 -1.29231 -2.89639 -4.43884 -0.0530079 -1.76249e-007 -2.57341e-006 -0.048675 18.5286 67.6662 -19.2723 -8.13649 25.2327 3.48774 
55.6376 97.0234 11.0138 0.534512 -5.62704 4.40787 0.0848557 -0.878003 -0.13785 0.160072 2.24661 -0.287945 0.16369 3.89168 -0.290842 -19.4497 18.7519 1.64811 14.3471 3.99687 -3.59301 16.6616 -10.1414 -6.18461 13.8141 24.9916 74.9599 -2.54444e-014 7.15625e-015 2.54444e-014 171.519 84.9861 -166.164 -5.43534e-006 3.45746e-006 -3.00967 8.02994 -4.95143 0.697662 -30.9908 -5.50442 1.44691 -13.8288 38.9711 -84.7471 3.94799e-005 -1.57703e-006 2.23847e-006 31.7212 83.4866 -35.0002 3.47719e-007 -2.9742e-006 3.00001 -8.02927 -4.95144 -0.697654 174.117 -5.33445 5.02284 180 7.01509e-015 178.769 177.962 4.81527 179.736 1.36169e-006 -1.87513e-007 0.0629708 -18.9461 68.2132 19.7069 8.1365 25.2327 -3.48773 -174.273 -8.06328 -2.97939 4.5067e-006 -1.99009e-005 -1.29175 -2.89852 -4.44573 -0.0532872 -1.76249e-007 -2.57341e-006 -0.0486611 18.5265 67.6638 -19.2705 -8.13649 25.2327 3.48774 
55.6392 97.0228 10.9901 0.536524 -5.61529 4.3927 0.0819651 -0.87436 -0.136483 0.155027 2.2539 -0.284204 0.158595 3.89898 -0.287014 -19.2669 18.6618 1.61604 14.2179 4.01714 -3.56273 16.6146 -10.1469 -6.19192 13.8932 25.0578 75.0666 -2.22639e-014 7.95139e-016 1.74931e-014 171.476 84.8776 -166.069 -5.43533e-006 3.45746e-006 -3.00967 8.02994 -4.95143 0.697662 -31.0014 -5.47507 1.4184 -13.9063 38.9797 -84.7954 3.94799e-005 -1.57703e-006 2.23847e-006 32.2088 83.5991 -35.5234 3.47719e-007 -2.9742e-006 3.00001 -8.02927 -4.95144 -0.697654 174.112 -5.30507 5.01913 180 7.01509e-015 178.77 177.967 4.82868 179.736 1.36169e-006 -1.87513e-007 0.0631438 -18.9517 68.2205 19.7131 8.1365 25.2327 -3.48773 -174.279 -8.04377 -2.9757 4.5067e-006 -1.99009e-005 -1.29117 -2.90005 -4.45201 -0.0534926 -1.76249e-007 -2.57341e-006 -0.0486471 18.5246 67.6616 -19.2688 -8.13649 25.2327 3.48774 
55.6424 97.0256 10.9807 0.538735 -5.60383 4.37677 0.0790526 -0.870529 -0.135434 0.150065 2.26157 -0.280973 0.153589 3.90665 -0.283698 -19.0911 18.5662 1.58454 14.0974 4.04218 -3.5336 16.5651 -10.1535 -6.20055 13.9878 25.126 75.1793 -1.59028e-014 7.95139e-016 1.74931e-014 171.406 84.7889 -165.947 -5.43533e-006 3.45746e-006 -3.00966 8.02994 -4.95143 0.697662 -31.0239 -5.44768 1.39284 -13.9779 38.9834 -84.8538 3.94799e-005 -1.57703e-006 2.23847e-006 32.692 83.7044 -36.0404 3.47719e-007 -2.9742e-006 3.00001 -8.02927 -4.95144 -0.697654 174.107 -5.2755 5.01582 180 7.01509e-015 178.771 177.971 4.84332 179.736 1.36169e-006 -1.87513e-007 0.0633311 -18.9581 68.2287 19.7202 8.1365 25.2327 -3.48773 -174.286 -8.02545 -2.97148 4.5067e-006 -1.99009e-005 -1.29057 -2.90109 -4.45769 -0.053633 -1.76249e-007 -2.57341e-006 -0.048633 18.5228 67.6596 -19.2672 -8.13649 25.2327 3.48774 
